<svg xmlns="http://www.w3.org/2000/svg" xmlns:xlink="http://www.w3.org/1999/xlink" width="18" height="18" viewBox="0 0 18 18">
  <defs>
    <style>
      .cls-1 {
        fill: none;
      }

      .cls-2 {
        clip-path: url(#clip-path);
      }

      .cls-3 {
        fill: #d93030;
      }

      .cls-4 {
        fill: #000;
      }
    </style>
    <clipPath id="clip-path">
      <rect id="사각형_17" data-name="사각형 17" class="cls-1" width="18" height="18" transform="translate(0 0)"/>
    </clipPath>
  </defs>
  <g id="icon_wallet_bk_unconnected" transform="translate(0 0)">
    <g id="그룹_37" data-name="그룹 37">
      <g id="그룹_36" data-name="그룹 36" class="cls-2">
        <path id="패스_78" data-name="패스 78" class="cls-3" d="M7,14.5A3.5,3.5,0,1,1,3.5,11,3.5,3.5,0,0,1,7,14.5"/>
        <path id="패스_79" data-name="패스 79" class="cls-4" d="M17.5,7.529h-.441V.5a.5.5,0,0,0-.5-.5H3.382A2.446,2.446,0,0,0,1,2.5V9.6a5.484,5.484,0,0,1,1-.393V4.766a2.357,2.357,0,0,0,1.4.469H16.059V7.529H13.794a1.5,1.5,0,0,0-1.5,1.5v1.765a1.5,1.5,0,0,0,1.5,1.5h2.265V16H8.788A5.484,5.484,0,0,1,8.4,17h8.164a.5.5,0,0,0,.5-.5V12.294H17.5a.5.5,0,0,0,.5-.5V8.029a.5.5,0,0,0-.5-.5M3.4,4.235A1.382,1.382,0,0,1,2.025,2.853.478.478,0,0,0,2,2.727V2.5A1.446,1.446,0,0,1,3.382,1H16.059V4.235ZM17,11.294H13.794a.5.5,0,0,1-.5-.5V9.029a.5.5,0,0,1,.5-.5H17Z"/>
      </g>
    </g>
  </g>
</svg>
