<svg xmlns="http://www.w3.org/2000/svg" width="15.52" height="15.521" viewBox="0 0 15.52 15.521">
  <defs>
    <style>
      .cls-1 {
        fill: #a2a2a2;
      }

      .cls-2 {
        fill: #fff;
      }
    </style>
  </defs>
  <g id="icon_instagrm" transform="translate(-1127.428 -842.429)">
    <path id="icon_insta_normal" class="cls-1" d="M1137.672,850.189a2.484,2.484,0,1,1-2.484-2.484A2.484,2.484,0,0,1,1137.672,850.189Zm5.276-3.415V853.6a4.35,4.35,0,0,1-4.345,4.346h-6.829a4.349,4.349,0,0,1-4.345-4.346v-6.829a4.349,4.349,0,0,1,4.345-4.346h6.829A4.35,4.35,0,0,1,1142.948,846.774Zm-4.036,3.415a3.724,3.724,0,1,0-3.724,3.726A3.723,3.723,0,0,0,1138.912,850.189Zm1.244-4.036a.932.932,0,1,0-.932.931A.931.931,0,0,0,1140.156,846.154Z"/>
    <path id="icon_insta_hover" class="cls-2" d="M1137.672,850.189a2.484,2.484,0,1,1-2.484-2.484A2.484,2.484,0,0,1,1137.672,850.189Zm5.276-3.415V853.6a4.35,4.35,0,0,1-4.345,4.346h-6.829a4.349,4.349,0,0,1-4.345-4.346v-6.829a4.349,4.349,0,0,1,4.345-4.346h6.829A4.35,4.35,0,0,1,1142.948,846.774Zm-4.036,3.415a3.724,3.724,0,1,0-3.724,3.726A3.723,3.723,0,0,0,1138.912,850.189Zm1.244-4.036a.932.932,0,1,0-.932.931A.931.931,0,0,0,1140.156,846.154Z"/>
  </g>
</svg>
