<svg xmlns="http://www.w3.org/2000/svg" width="18" height="18" viewBox="0 0 18 18">
  <defs>
    <style>
      .cls-1 {
        fill: #27e580;
      }

      .cls-2 {
        fill: #000;
      }
    </style>
  </defs>
  <g id="connected_wh" transform="translate(-2.5 -3.5)">
    <circle id="타원_8" data-name="타원 8" class="cls-1" cx="3.5" cy="3.5" r="3.5" transform="translate(2.5 14.5)"/>
    <path id="패스_51" data-name="패스 51" class="cls-2" d="M20,11.029h-.441V4a.5.5,0,0,0-.5-.5H5.882A2.446,2.446,0,0,0,3.5,6v7.1a5.484,5.484,0,0,1,1-.393V8.266a2.355,2.355,0,0,0,1.4.469H18.559v2.294H16.294a1.5,1.5,0,0,0-1.5,1.5v1.765a1.5,1.5,0,0,0,1.5,1.5h2.265V19.5H11.288a5.484,5.484,0,0,1-.393,1h8.164a.5.5,0,0,0,.5-.5V15.794H20a.5.5,0,0,0,.5-.5V11.529A.5.5,0,0,0,20,11.029ZM5.9,7.735A1.382,1.382,0,0,1,4.525,6.353.478.478,0,0,0,4.5,6.227V6A1.446,1.446,0,0,1,5.882,4.5H18.559V7.735Zm13.6,7.059H16.294a.5.5,0,0,1-.5-.5V12.529a.5.5,0,0,1,.5-.5H19.5Z"/>
  </g>
</svg>
