<svg xmlns="http://www.w3.org/2000/svg" width="58" height="67" viewBox="0 0 58 67">
    <defs>
        <clipPath id="tga1h6t8ma">
            <path data-name="사각형 3" style="fill:none" d="M0 0h58v67H0z"/>
        </clipPath>
    </defs>
    <g data-name="Vector Smart Object">
        <path data-name="패스 10" d="M18.955 26.291H28.7L13.315 40.429h21.027L7.776 54.314h12.789" style="stroke:#000;stroke-linecap:round;stroke-linejoin:round;stroke-width:2.007px;fill:none"/>
        <path data-name="선 9" transform="translate(23.829 14.073)" style="stroke:#000;stroke-linecap:round;stroke-linejoin:round;stroke-width:2.007px;fill:none" d="m0 0 19.475 48.823"/>
        <path data-name="선 10" transform="translate(4.353 14.073)" style="stroke:#000;stroke-linecap:round;stroke-linejoin:round;stroke-width:2.007px;fill:none" d="M19.475 0 0 48.823"/>
        <g data-name="그룹 5">
            <g data-name="그룹 4" style="clip-path:url(#tga1h6t8ma)">
                <ellipse data-name="타원 4" cx="2.773" cy="2.776" rx="2.773" ry="2.776" transform="translate(21.056 8.466)" style="stroke:#000;stroke-linecap:round;stroke-linejoin:round;stroke-width:2.007px;fill:none"/>
                <path data-name="패스 11" d="M31.478 6.822a6.351 6.351 0 0 1 1.894 4.421 6.353 6.353 0 0 1-1.894 4.422" style="stroke:#000;stroke-linecap:round;stroke-linejoin:round;stroke-width:2.007px;fill:none"/>
                <path data-name="패스 12" d="M16.179 15.664a6.351 6.351 0 0 1-1.894-4.421 6.353 6.353 0 0 1 1.894-4.422" style="stroke:#000;stroke-linecap:round;stroke-linejoin:round;stroke-width:2.007px;fill:none"/>
                <path data-name="패스 13" d="M36.564 3.914a9.8 9.8 0 0 1 3.646 7.329 9.807 9.807 0 0 1-3.668 7.349" style="stroke:#000;stroke-linecap:round;stroke-linejoin:round;stroke-width:2.007px;fill:none"/>
                <path data-name="패스 14" d="M11.115 18.591a9.81 9.81 0 0 1-3.668-7.348 9.835 9.835 0 0 1 3.72-7.395" style="stroke:#000;stroke-linecap:round;stroke-linejoin:round;stroke-width:2.007px;fill:none"/>
                <path data-name="패스 15" d="M6.113 21.482A13.665 13.665 0 0 1 1 11.243 13.667 13.667 0 0 1 6.113 1" style="stroke:#000;stroke-linecap:round;stroke-linejoin:round;stroke-width:2.007px;fill:none"/>
                <path data-name="패스 16" d="M41.543 1a13.665 13.665 0 0 1 5.111 10.238 13.667 13.667 0 0 1-5.111 10.239" style="stroke:#000;stroke-linecap:round;stroke-linejoin:round;stroke-width:2.007px;fill:none"/>
                <path data-name="패스 17" d="M58 50.935a16.048 16.048 0 1 1-16.048-16.064A16.056 16.056 0 0 1 58 50.935" style="fill:#fff"/>
                <path data-name="패스 18" d="M53.988 50.935a12.036 12.036 0 1 1-12.036-12.048 12.043 12.043 0 0 1 12.036 12.048" style="fill:#fff"/>
                <ellipse data-name="타원 5" cx="12.036" cy="12.049" rx="12.036" ry="12.049" transform="translate(29.916 38.887)" style="stroke:#000;stroke-linecap:round;stroke-linejoin:round;stroke-width:2.007px;fill:none"/>
                <path data-name="선 11" transform="translate(37.224 46.202)" style="fill:#fff" d="m0 0 9.456 9.466"/>
                <path data-name="선 12" transform="translate(37.224 46.202)" style="stroke:#000;stroke-linecap:round;stroke-linejoin:round;stroke-width:2.007px;fill:none" d="m0 0 9.456 9.466"/>
                <path data-name="선 13" transform="translate(37.224 46.202)" style="fill:#fff" d="M0 9.466 9.456 0"/>
                <path data-name="선 14" transform="translate(37.224 46.202)" style="stroke:#000;stroke-linecap:round;stroke-linejoin:round;stroke-width:2.007px;fill:none" d="M0 9.466 9.456 0"/>
            </g>
        </g>
    </g>
</svg>
