<svg xmlns="http://www.w3.org/2000/svg" width="20.005" height="16.169" viewBox="0 0 20.005 16.169">
  <defs>
    <style>
      .cls-1 {
        fill: #a2a2a2;
      }

      .cls-2 {
        fill: #fff;
      }
    </style>
  </defs>
  <g id="icon_twitter" transform="translate(-1172.042 -842.838)">
    <path id="icon_twitter_normal" class="cls-1" d="M1192.048,844.752a8.237,8.237,0,0,1-2.356.642,4.1,4.1,0,0,0,1.8-2.258,8.251,8.251,0,0,1-2.605.99,4.1,4.1,0,0,0-7,3.723,11.675,11.675,0,0,1-8.46-4.265,4.07,4.07,0,0,0,1.27,5.449,4.113,4.113,0,0,1-1.858-.51c0,.017,0,.034,0,.051a4.089,4.089,0,0,0,3.293,4,4.134,4.134,0,0,1-1.854.07,4.106,4.106,0,0,0,3.833,2.834,8.262,8.262,0,0,1-5.1,1.748,8.354,8.354,0,0,1-.979-.057,11.685,11.685,0,0,0,17.97-9.781c0-.176,0-.352-.012-.528a8.292,8.292,0,0,0,2.048-2.112Z"/>
    <path id="icon_twitter_hover" class="cls-2" d="M1192.048,844.752a8.237,8.237,0,0,1-2.356.642,4.1,4.1,0,0,0,1.8-2.258,8.251,8.251,0,0,1-2.605.99,4.1,4.1,0,0,0-7,3.723,11.675,11.675,0,0,1-8.46-4.265,4.07,4.07,0,0,0,1.27,5.449,4.113,4.113,0,0,1-1.858-.51c0,.017,0,.034,0,.051a4.089,4.089,0,0,0,3.293,4,4.134,4.134,0,0,1-1.854.07,4.106,4.106,0,0,0,3.833,2.834,8.262,8.262,0,0,1-5.1,1.748,8.354,8.354,0,0,1-.979-.057,11.685,11.685,0,0,0,17.97-9.781c0-.176,0-.352-.012-.528a8.292,8.292,0,0,0,2.048-2.112Z"/>
  </g>
</svg>
