<svg xmlns="http://www.w3.org/2000/svg" width="31.83" height="29.592" viewBox="0 0 31.83 29.592">
    <defs>
        <clipPath id="vz01vv6yza">
            <path data-name="사각형 8" style="fill:none" d="M0 0h31.83v29.592H0z"/>
        </clipPath>
    </defs>
    <g data-name="Vector Smart Object">
        <path data-name="패스 32" d="M30.189.062 17.817 9.274l2.288-5.435z" style="fill:#e2761b"/>
        <g data-name="그룹 20">
            <g data-name="그룹 19" style="clip-path:url(#vz01vv6yza)">
                <path data-name="패스 33" d="M30.189.062 17.817 9.274l2.288-5.435z" style="stroke-linecap:round;stroke-linejoin:round;stroke-width:.124px;stroke:#e2761b;fill:none"/>
            </g>
        </g>
        <path data-name="패스 34" d="M1.629.062 13.9 9.361l-2.175-5.522zm24.109 21.353-3.295 5.061 7.05 1.945 2.027-6.893zm-25.415.112 2.015 6.893 7.05-1.945-3.295-5.06z" style="fill:#e4761b"/>
        <g data-name="그룹 22">
            <g data-name="그룹 21" style="clip-path:url(#vz01vv6yza)">
                <path data-name="패스 35" d="M1.629.062 13.9 9.361l-2.175-5.522zm24.109 21.353-3.295 5.061 7.05 1.945 2.027-6.893zm-25.415.112 2.015 6.893 7.05-1.945-3.295-5.06z" style="stroke:#e4761b;stroke-linecap:round;stroke-linejoin:round;stroke-width:.124px;fill:none"/>
            </g>
        </g>
        <path data-name="패스 36" d="m8.99 12.864-1.965 2.979 7 .312-.249-7.541zm13.839 0-4.85-4.338-.162 7.629 6.988-.312zM9.387 26.476l4.2-2.057-3.628-2.842zm8.84-2.057 4.215 2.057-.584-4.9z" style="fill:#e4761b"/>
        <path data-name="패스 37" d="m8.99 12.864-1.965 2.979 7 .312-.249-7.541zm13.839 0-4.85-4.338-.162 7.629 6.988-.312zM9.387 26.476l4.2-2.057-3.628-2.842zm8.84-2.057 4.215 2.057-.584-4.9z" style="stroke:#e4761b;stroke-linecap:round;stroke-linejoin:round;stroke-width:.124px;fill:none"/>
        <path data-name="패스 38" d="m22.443 26.476-4.215-2.057.336 2.755-.037 1.159zm-13.055 0 3.912 1.857-.025-1.159.311-2.755z" style="fill:#d7c1b3"/>
        <path data-name="패스 39" d="m22.443 26.476-4.215-2.057.336 2.755-.037 1.159zm-13.055 0 3.912 1.857-.025-1.159.311-2.755z" style="stroke:#d7c1b3;stroke-linecap:round;stroke-linejoin:round;stroke-width:.124px;fill:none"/>
        <path data-name="패스 40" d="M13.366 19.757 9.86 18.723l2.474-1.134zm5.085 0 1.032-2.169 2.487 1.134z" style="fill:#233447"/>
        <path data-name="패스 41" d="M13.366 19.757 9.86 18.723l2.474-1.134zm5.085 0 1.032-2.169 2.487 1.134z" style="stroke:#233447;stroke-linecap:round;stroke-linejoin:round;stroke-width:.124px;fill:none"/>
        <path data-name="패스 42" d="m9.387 26.476.6-5.061-3.892.112zm12.459-5.061.6 5.061 3.295-4.949zm2.959-5.572-6.988.312.647 3.6 1.036-2.167 2.487 1.134zM9.86 18.723l2.487-1.134 1.02 2.169.659-3.6-7-.312z" style="fill:#cd6116"/>
        <path data-name="패스 43" d="m9.387 26.476.6-5.061-3.892.112zm12.459-5.061.6 5.061 3.295-4.949zm2.959-5.572-6.988.312.647 3.6 1.036-2.167 2.487 1.134zM9.86 18.723l2.487-1.134 1.02 2.169.659-3.6-7-.312z" style="stroke:#cd6116;stroke-linecap:round;stroke-linejoin:round;stroke-width:.124px;fill:none"/>
        <path data-name="패스 44" d="m7.025 15.843 2.934 5.734-.1-2.855zm14.958 2.879-.124 2.855 2.947-5.734zm-7.958-2.568-.659 3.6.821 4.251.187-5.6zm3.792 0-.335 2.246.149 5.609.833-4.251z" style="fill:#e4751f"/>
        <path data-name="패스 45" d="m7.025 15.843 2.934 5.734-.1-2.855zm14.958 2.879-.124 2.855 2.947-5.734zm-7.958-2.568-.659 3.6.821 4.251.187-5.6zm3.792 0-.335 2.246.149 5.609.833-4.251z" style="stroke:#e4751f;stroke-linecap:round;stroke-linejoin:round;stroke-width:.124px;fill:none"/>
        <path data-name="패스 46" d="m18.464 19.757-.833 4.251.6.411 3.631-2.842.124-2.855zm-8.6-1.035.1 2.855 3.631 2.842.6-.411-.821-4.251z" style="fill:#f6851b"/>
        <path data-name="패스 47" d="m18.464 19.757-.833 4.251.6.411 3.631-2.842.124-2.855zm-8.6-1.035.1 2.855 3.631 2.842.6-.411-.821-4.251z" style="stroke:#f6851b;stroke-linecap:round;stroke-linejoin:round;stroke-width:.124px;fill:none"/>
        <path data-name="패스 48" d="m18.526 28.333.037-1.159-.311-.274h-4.687l-.286.274.025 1.159-3.917-1.857 1.368 1.124 2.773 1.932h4.762l2.785-1.932 1.368-1.122z" style="fill:#c0ad9e"/>
        <g data-name="그룹 24">
            <g data-name="그룹 23" style="clip-path:url(#vz01vv6yza)">
                <path data-name="패스 49" d="m18.526 28.333.037-1.159-.311-.274h-4.687l-.286.274.025 1.159-3.917-1.857 1.368 1.124 2.773 1.932h4.762l2.785-1.932 1.368-1.122z" style="stroke:#c0ad9e;stroke-linecap:round;stroke-linejoin:round;stroke-width:.124px;fill:none"/>
            </g>
        </g>
        <path data-name="패스 50" d="m18.228 24.419-.6-.411h-3.441l-.6.411-.311 2.755.286-.274h4.688l.311.274z" style="fill:#161616"/>
        <path data-name="패스 51" d="m18.228 24.419-.6-.411h-3.441l-.6.411-.311 2.755.286-.274h4.688l.311.274z" style="stroke:#161616;stroke-linecap:round;stroke-linejoin:round;stroke-width:.124px;fill:none"/>
        <path data-name="패스 52" d="m.062 4.787 1.057 5.085-.671.5.995.76-.758.6.995.91-.622.449 1.43 1.683 6.5-1.907 4.6-3.9L1.629.062zm18.166 4.175 4.6 3.9 6.5 1.907 1.442-1.683-.622-.449.995-.91-.771-.6.995-.76-.659-.5 1.057-5.086L30.189.062z" style="fill:#763d16"/>
        <g data-name="그룹 26">
            <g data-name="그룹 25" style="clip-path:url(#vz01vv6yza)">
                <path data-name="패스 53" d="m30.711 9.872 1.057-5.086L30.189.062l-11.961 8.9 4.6 3.9 6.5 1.907 1.442-1.683-.622-.449.995-.91-.771-.6.995-.76zM.062 4.787l1.057 5.085-.671.5.995.76-.758.6.995.91-.622.449 1.43 1.683 6.5-1.907 4.6-3.9L1.629.062z" style="stroke:#763d16;stroke-linecap:round;stroke-linejoin:round;stroke-width:.124px;fill:none"/>
            </g>
        </g>
        <path data-name="패스 54" d="m29.331 14.771-6.5-1.907 1.977 2.979-2.947 5.734 3.879-.05h5.782zM8.99 12.864l-6.5 1.907-2.167 6.756h5.77l3.867.05-2.935-5.734zm8.828 3.291.41-7.192 1.89-5.123h-8.393l1.865 5.122.435 7.192.149 2.269.012 5.584h3.444l.025-5.584z" style="fill:#f6851b"/>
        <path data-name="패스 55" d="m29.331 14.771-6.5-1.907 1.977 2.979-2.947 5.734 3.879-.05h5.782zM8.99 12.864l-6.5 1.907-2.167 6.756h5.77l3.867.05-2.935-5.734zm8.828 3.291.41-7.192 1.89-5.123h-8.393l1.865 5.122.435 7.192.149 2.269.012 5.584h3.444l.025-5.584z" style="stroke:#f6851b;stroke-linecap:round;stroke-linejoin:round;stroke-width:.124px;fill:none"/>
    </g>
</svg>
