<svg xmlns="http://www.w3.org/2000/svg" width="64" height="52" viewBox="0 0 64 52">
    <defs>
        <clipPath id="oisa86u3ia">
            <path data-name="사각형 5" style="fill:none" d="M0 0h64v52H0z"/>
        </clipPath>
    </defs>
    <g data-name="Vector Smart Object">
        <g data-name="그룹 7">
            <g data-name="그룹 6" style="clip-path:url(#oisa86u3ia)">
                <circle data-name="타원 6" cx="2.422" cy="2.422" r="2.422" transform="translate(29.578 29.166)" style="stroke:#000;stroke-linecap:round;stroke-linejoin:round;stroke-width:2px;fill:none"/>
                <path data-name="패스 19" d="M31.046 44.354a.982.982 0 0 1-.98-.98v-2.125a1.8 1.8 0 0 0-1.151-1.649 2.02 2.02 0 0 0-.766-.155 1.718 1.718 0 0 0-1.226.5l-1.5 1.5a1.033 1.033 0 0 1-1.386 0l-1.9-1.9a.979.979 0 0 1 0-1.385l1.5-1.5a1.879 1.879 0 0 0-1.3-3.143h-2.123a.981.981 0 0 1-.98-.98v-1.903a.982.982 0 0 1 .98-.98h2.126a1.879 1.879 0 0 0 1.3-3.142l-1.5-1.5a.981.981 0 0 1 0-1.387l1.9-1.9a1.036 1.036 0 0 1 1.386 0l1.5 1.5a1.726 1.726 0 0 0 1.229.5 1.977 1.977 0 0 0 .736-.145 1.8 1.8 0 0 0 1.177-1.657V19.8a.981.981 0 0 1 .98-.98h1.909a.981.981 0 0 1 .98.98v2.125a1.8 1.8 0 0 0 1.151 1.646 2.005 2.005 0 0 0 .766.156 1.717 1.717 0 0 0 1.227-.5l1.5-1.5a1.036 1.036 0 0 1 1.386 0l1.9 1.9a.979.979 0 0 1 0 1.386l-1.5 1.5a1.879 1.879 0 0 0 1.3 3.142h2.126a.981.981 0 0 1 .979.98v1.908a.98.98 0 0 1-.979.98h-2.132a1.879 1.879 0 0 0-1.3 3.14l1.5 1.506a.979.979 0 0 1 0 1.385l-1.9 1.9a1.033 1.033 0 0 1-1.386 0l-1.5-1.5a1.728 1.728 0 0 0-1.228-.5 1.987 1.987 0 0 0-.737.145 1.8 1.8 0 0 0-1.177 1.657v2.125a.982.982 0 0 1-.98.98z" style="stroke:#000;stroke-linecap:round;stroke-linejoin:round;stroke-width:2px;fill:none"/>
                <path data-name="선 15" transform="translate(8.751 6.447)" style="stroke:#000;stroke-linecap:round;stroke-linejoin:round;stroke-width:2px;fill:none" d="M0 0h0"/>
                <path data-name="선 16" transform="translate(13.595 6.447)" style="stroke:#000;stroke-linecap:round;stroke-linejoin:round;stroke-width:2px;fill:none" d="M0 0h0"/>
                <path data-name="선 17" transform="translate(18.439 6.447)" style="stroke:#000;stroke-linecap:round;stroke-linejoin:round;stroke-width:2px;fill:none" d="M0 0h0"/>
                <path data-name="사각형 4" transform="translate(1 1)" style="stroke:#000;stroke-linecap:round;stroke-linejoin:round;stroke-width:2px;fill:none" d="M0 0h62v50H0z"/>
                <path data-name="선 18" transform="translate(5.844 12.385)" style="stroke:#000;stroke-linecap:round;stroke-linejoin:round;stroke-width:2px;fill:none" d="M0 0h57.156"/>
            </g>
        </g>
    </g>
</svg>
