<svg xmlns="http://www.w3.org/2000/svg" width="19.809" height="18.14" viewBox="0 0 19.809 18.14">
  <defs>
    <style>
      .cls-1 {
        fill: #a2a2a2;
      }

      .cls-2 {
        fill: #fff;
      }
    </style>
  </defs>
  <g id="icon_kakao" transform="translate(-1219.999 -840.897)">
    <path id="icon_kakao_normal" class="cls-1" d="M1223.723,859.005c-.11-.063-.09-.229-.09-.229.033-.222.858-3.043,1.008-3.563-2.788-1.371-4.642-3.8-4.642-6.565,0-4.28,4.433-7.75,9.905-7.75s9.9,3.469,9.9,7.75-4.432,7.75-9.9,7.75a12.667,12.667,0,0,1-1.76-.122c-.572.4-3.873,2.7-4.185,2.745a.336.336,0,0,1-.108.018A.255.255,0,0,1,1223.723,859.005Zm-1.318-12.118a.558.558,0,0,0,.56.555h.891v3.369a.572.572,0,0,0,1.143,0v-3.369h.892a.555.555,0,1,0,0-1.111h-2.926A.558.558,0,0,0,1222.4,846.887Zm6.275,3.473.284.734a.467.467,0,0,0,.475.25.861.861,0,0,0,.362-.077c.158-.072.31-.271.136-.806l-1.366-3.569a.8.8,0,0,0-1.523,0l-1.367,3.57c-.174.535-.022.734.136.806a.867.867,0,0,0,.362.077.473.473,0,0,0,.477-.249l.283-.735Zm4.78-3.461v3.879a.572.572,0,0,0,1.144,0v-1.237l.2-.2,1.341,1.762a.57.57,0,0,0,.455.225.571.571,0,0,0,.566-.488.551.551,0,0,0-.111-.42l-1.406-1.849,1.3-1.292a.444.444,0,0,0,.125-.346.548.548,0,0,0-.168-.359.561.561,0,0,0-.392-.168.445.445,0,0,0-.317.126l-1.594,1.583V846.9a.572.572,0,0,0-1.144,0Zm-3.15,0v3.852a.533.533,0,0,0,.547.519h1.833a.52.52,0,1,0,0-1.039h-1.214V846.9a.583.583,0,0,0-1.166,0Zm-3.073,2.456.572-1.608.572,1.608Z"/>
    <path id="icon_kakao_hover" class="cls-2" d="M1223.723,859.005c-.11-.063-.09-.229-.09-.229.033-.222.858-3.043,1.008-3.563-2.788-1.371-4.642-3.8-4.642-6.565,0-4.28,4.433-7.75,9.905-7.75s9.9,3.469,9.9,7.75-4.432,7.75-9.9,7.75a12.667,12.667,0,0,1-1.76-.122c-.572.4-3.873,2.7-4.185,2.745a.336.336,0,0,1-.108.018A.255.255,0,0,1,1223.723,859.005Zm-1.318-12.118a.558.558,0,0,0,.56.555h.891v3.369a.572.572,0,0,0,1.143,0v-3.369h.892a.555.555,0,1,0,0-1.111h-2.926A.558.558,0,0,0,1222.4,846.887Zm6.275,3.473.284.734a.467.467,0,0,0,.475.25.861.861,0,0,0,.362-.077c.158-.072.31-.271.136-.806l-1.366-3.569a.8.8,0,0,0-1.523,0l-1.367,3.57c-.174.535-.022.734.136.806a.867.867,0,0,0,.362.077.473.473,0,0,0,.477-.249l.283-.735Zm4.78-3.461v3.879a.572.572,0,0,0,1.144,0v-1.237l.2-.2,1.341,1.762a.57.57,0,0,0,.455.225.571.571,0,0,0,.566-.488.551.551,0,0,0-.111-.42l-1.406-1.849,1.3-1.292a.444.444,0,0,0,.125-.346.548.548,0,0,0-.168-.359.561.561,0,0,0-.392-.168.445.445,0,0,0-.317.126l-1.594,1.583V846.9a.572.572,0,0,0-1.144,0Zm-3.15,0v3.852a.533.533,0,0,0,.547.519h1.833a.52.52,0,1,0,0-1.039h-1.214V846.9a.583.583,0,0,0-1.166,0Zm-3.073,2.456.572-1.608.572,1.608Z"/>
  </g>
</svg>
