<svg xmlns="http://www.w3.org/2000/svg" width="128" height="20" viewBox="0 0 128 20">
  <defs>
    <style>
      .cls-1 {
        fill: #fff;
      }
    </style>
  </defs>
  <g id="Logo_wh" transform="translate(-358.916 -287.638)">
    <g id="그룹_29" data-name="그룹 29">
      <g id="그룹_26" data-name="그룹 26">
        <g id="그룹_25" data-name="그룹 25">
          <g id="그룹_24" data-name="그룹 24">
            <path id="패스_55" data-name="패스 55" class="cls-1" d="M370.011,288.5a1.272,1.272,0,0,0-1.2-.858H366.15a1.27,1.27,0,0,0-1.2.859l-5.961,17.459a1.266,1.266,0,0,0,1.2,1.674H361.5a1.271,1.271,0,0,0,1.217-.9l.7-2.3a1.272,1.272,0,0,1,1.217-.9H370.3a1.271,1.271,0,0,1,1.215.89l.724,2.315a1.27,1.27,0,0,0,1.214.89h1.314a1.267,1.267,0,0,0,1.2-1.674Zm-2.863,11.882a2.124,2.124,0,0,1-1.633-2.756l.669-2.155a1.3,1.3,0,0,1,2.5-.231l.767,2.492A2.073,2.073,0,0,1,367.148,300.386Z"/>
            <path id="패스_56" data-name="패스 56" class="cls-1" d="M393.714,293.762c0-3.867-2.346-6.116-6.772-6.116h-7.18a1.269,1.269,0,0,0-1.272,1.266v17.46a1.269,1.269,0,0,0,1.272,1.266h1.375a1.269,1.269,0,0,0,1.272-1.266V301.65a1.269,1.269,0,0,1,1.272-1.266h2.354c2.347,0,3.334.834,3.44,2.907l.16,2.578c.009.226.025.445.05.652a1.3,1.3,0,0,0,1.263,1.117H392.3a1.258,1.258,0,0,0,1.266-1.391c-.016-.137-.03-.28-.04-.429l-.187-2.78a4.606,4.606,0,0,0-1.313-3.437,1.181,1.181,0,0,1,.05-1.832A4.926,4.926,0,0,0,393.714,293.762Zm-7.411,3.463h-1.171a2.716,2.716,0,0,1-2.722-2.709v-1a2.715,2.715,0,0,1,2.722-2.708H386.3c2.16,0,3.492.859,3.492,3.21S388.462,297.225,386.3,297.225Z"/>
            <path id="패스_57" data-name="패스 57" class="cls-1" d="M408.894,287.646H396.107a1.269,1.269,0,0,0-1.272,1.266v.627a1.269,1.269,0,0,0,1.272,1.266h3.162a1.269,1.269,0,0,1,1.272,1.266v14.3a1.269,1.269,0,0,0,1.272,1.266h1.375a1.269,1.269,0,0,0,1.272-1.266v-14.3a1.269,1.269,0,0,1,1.272-1.266h3.163a1.269,1.269,0,0,0,1.272-1.266v-.627A1.269,1.269,0,0,0,408.894,287.646Z"/>
            <path id="패스_58" data-name="패스 58" class="cls-1" d="M423.959,304.478h-6.522a1.269,1.269,0,0,1-1.272-1.266v-2.977a1.269,1.269,0,0,1,1.272-1.266h5.3A1.269,1.269,0,0,0,424,297.7v-.6a1.269,1.269,0,0,0-1.272-1.266h-5.3a1.269,1.269,0,0,1-1.272-1.266v-2.5a1.269,1.269,0,0,1,1.272-1.266h6.389a1.269,1.269,0,0,0,1.272-1.266v-.627a1.269,1.269,0,0,0-1.272-1.266H413.517a1.269,1.269,0,0,0-1.272,1.266v17.46a1.269,1.269,0,0,0,1.272,1.266h10.442a1.269,1.269,0,0,0,1.272-1.266v-.628A1.269,1.269,0,0,0,423.959,304.478Z"/>
          </g>
        </g>
      </g>
      <g id="그룹_28" data-name="그룹 28">
        <g id="그룹_27" data-name="그룹 27">
          <path id="패스_59" data-name="패스 59" class="cls-1" d="M435.832,290.331v17.23h-1.438V287.638h1.1l14.039,17.537V287.638h1.439v19.923h-1.325Z"/>
          <path id="패스_60" data-name="패스 60" class="cls-1" d="M456.187,307.561V287.638h13.025v1.291H457.625v7.913h9.838v1.234h-9.838v9.485Z"/>
          <path id="패스_61" data-name="패스 61" class="cls-1" d="M486.916,288.929h-7.33v18.632h-1.438V288.929h-7.33v-1.291h16.1Z"/>
        </g>
      </g>
    </g>
  </g>
</svg>
