<svg xmlns="http://www.w3.org/2000/svg" width="513.8" height="80.371" viewBox="0 0 513.8 80.371">
    <g data-name="그룹 14">
        <g data-name="그룹 11">
            <g data-name="그룹 10">
                <g data-name="그룹 9">
                    <path data-name="패스 11" d="M1000.216 817.635a5.1 5.1 0 0 0-4.834-3.45h-10.663a5.1 5.1 0 0 0-4.834 3.45L955.956 887.8a5.091 5.091 0 0 0 4.834 6.725h5.251a5.107 5.107 0 0 0 4.885-3.605l2.823-9.243a5.1 5.1 0 0 1 4.885-3.605h22.748a5.1 5.1 0 0 1 4.874 3.574l2.9 9.3a5.107 5.107 0 0 0 4.877 3.576h5.274a5.09 5.09 0 0 0 4.834-6.725zm-11.494 47.746c-5.09-.738-8.072-6.177-6.55-11.074l2.685-8.66c1.777-5.726 8.581-5.718 10.053-.927l3.076 10.012a8.325 8.325 0 0 1-9.263 10.649z" style="fill:#fff" transform="translate(-955.681 -814.153)"/>
                    <path data-name="패스 12" d="M1095.363 838.761c0-15.537-9.417-24.576-27.184-24.576h-28.821a5.1 5.1 0 0 0-5.1 5.086v70.164a5.1 5.1 0 0 0 5.1 5.089h5.522a5.1 5.1 0 0 0 5.1-5.089v-18.973a5.1 5.1 0 0 1 5.107-5.086h9.448c9.42 0 13.378 3.35 13.807 11.68l.642 10.359c.035.91.1 1.791.2 2.624a5.235 5.235 0 0 0 5.07 4.486h5.436a5.056 5.056 0 0 0 5.081-5.589q-.1-.827-.164-1.725l-.749-11.172c-.4-6.556-1.993-11.04-5.269-13.812a4.745 4.745 0 0 1 .2-7.362c4.388-3.641 6.574-9.065 6.574-16.104zm-29.751 13.916h-4.7a10.9 10.9 0 0 1-10.923-10.882v-4.03a10.9 10.9 0 0 1 10.923-10.885h4.7c8.668 0 14.02 3.453 14.02 12.9s-5.352 12.897-14.02 12.897z" style="fill:#fff" transform="translate(-955.681 -814.153)"/>
                    <path data-name="패스 13" d="M1156.3 814.185h-51.33a5.1 5.1 0 0 0-5.1 5.086v2.52a5.1 5.1 0 0 0 5.1 5.089h12.692a5.1 5.1 0 0 1 5.107 5.086v57.468a5.1 5.1 0 0 0 5.1 5.089h5.522a5.1 5.1 0 0 0 5.1-5.089v-57.467a5.1 5.1 0 0 1 5.107-5.086h12.702a5.1 5.1 0 0 0 5.1-5.089v-2.517a5.1 5.1 0 0 0-5.1-5.09z" style="fill:#fff" transform="translate(-955.681 -814.153)"/>
                    <path data-name="패스 14" d="M1216.767 881.825h-26.179a5.094 5.094 0 0 1-5.1-5.086v-11.964a5.094 5.094 0 0 1 5.1-5.086h21.253a5.1 5.1 0 0 0 5.107-5.089v-2.42a5.094 5.094 0 0 0-5.1-5.086h-21.256a5.1 5.1 0 0 1-5.1-5.089v-10.038a5.094 5.094 0 0 1 5.1-5.086h25.643a5.1 5.1 0 0 0 5.1-5.089v-2.517a5.1 5.1 0 0 0-5.107-5.089h-41.371a5.1 5.1 0 0 0-5.107 5.086v70.164a5.1 5.1 0 0 0 5.107 5.089h41.91a5.1 5.1 0 0 0 5.1-5.089v-2.52a5.1 5.1 0 0 0-5.1-5.091z" style="fill:#fff" transform="translate(-955.681 -814.153)"/>
                </g>
            </g>
        </g>
        <g data-name="그룹 13">
            <g data-name="그룹 12">
                <path data-name="패스 15" d="M1264.429 824.977v69.237h-5.773v-80.061h4.413l56.356 70.477v-70.477h5.773v80.061h-5.321z" style="fill:#fff" transform="translate(-955.681 -814.153)"/>
                <path data-name="패스 16" d="M1346.132 894.214v-80.061h52.283v5.187h-46.51v31.8h39.49v4.96h-39.49v38.113z" style="fill:#fff" transform="translate(-955.681 -814.153)"/>
                <path data-name="패스 17" d="M1469.48 819.34h-29.423v74.874h-5.773V819.34h-29.423v-5.187h64.618z" style="fill:#fff" transform="translate(-955.681 -814.153)"/>
            </g>
        </g>
    </g>
</svg>
