<svg xmlns="http://www.w3.org/2000/svg" width="43" height="64.055" viewBox="0 0 43 64.055">
    <defs>
        <clipPath id="0kh8bzwdfa">
            <path data-name="사각형 123" style="fill:none" d="M0 0h43v44H0z"/>
        </clipPath>
        <clipPath id="19ebmw70nb">
            <path data-name="사각형 127" transform="translate(.5 .527)" style="fill:none" d="M0 0h41.999v42.962H0z"/>
        </clipPath>
    </defs>
    <g data-name="Vector Smart Object">
        <g data-name="그룹 68">
            <g data-name="그룹 67" style="clip-path:url(#0kh8bzwdfa)">
                <path data-name="사각형 121" transform="translate(.5 .511)" style="stroke-width:1.011px;stroke-miterlimit:10;stroke:#ddd;fill:none" d="M0 0h42v42.963H0z"/>
                <path data-name="선 249" transform="translate(.5 7.672)" style="stroke-miterlimit:10;stroke:#ddd;fill:none" d="M0 0h42"/>
                <path data-name="선 250" transform="translate(.5 14.832)" style="stroke-miterlimit:10;stroke:#ddd;fill:none" d="M0 0h42"/>
                <path data-name="선 251" transform="translate(.5 21.993)" style="stroke-miterlimit:10;stroke:#ddd;fill:none" d="M0 0h42"/>
                <path data-name="선 252" transform="translate(.5 29.153)" style="stroke-miterlimit:10;stroke:#ddd;fill:none" d="M0 0h42"/>
                <path data-name="선 253" transform="translate(.5 36.314)" style="stroke-miterlimit:10;stroke:#ddd;fill:none" d="M0 0h42"/>
                <path data-name="사각형 122" transform="translate(.5 .511)" style="stroke-width:1.011px;stroke-miterlimit:10;stroke:#ddd;fill:none" d="M0 0h42v42.963H0z"/>
                <path data-name="선 254" transform="translate(7.5 .511)" style="stroke-width:1.023px;stroke-miterlimit:10;stroke:#ddd;fill:none" d="M0 42.963V0"/>
                <path data-name="선 255" transform="translate(14.5 .511)" style="stroke-width:1.023px;stroke-miterlimit:10;stroke:#ddd;fill:none" d="M0 42.963V0"/>
                <path data-name="선 256" transform="translate(21.5 .511)" style="stroke-width:1.023px;stroke-miterlimit:10;stroke:#ddd;fill:none" d="M0 42.963V0"/>
                <path data-name="선 257" transform="translate(28.5 .511)" style="stroke-width:1.023px;stroke-miterlimit:10;stroke:#ddd;fill:none" d="M0 42.963V0"/>
                <path data-name="선 258" transform="translate(35.5 .511)" style="stroke-width:1.023px;stroke-miterlimit:10;stroke:#ddd;fill:none" d="M0 42.963V0"/>
            </g>
        </g>
        <path data-name="사각형 124" d="M.5.527h41.999v42.962H.5z"/>
        <g data-name="그룹 70">
            <g data-name="그룹 69" style="clip-path:url(#19ebmw70nb)">
                <path data-name="사각형 125" transform="translate(.5 .526)" style="stroke:#666;stroke-width:1.011px;stroke-miterlimit:10;fill:none" d="M0 0h42v42.963H0z"/>
                <path data-name="선 259" transform="translate(.5 7.686)" style="stroke:#666;stroke-miterlimit:10;fill:none" d="M0 0h42"/>
                <path data-name="선 260" transform="translate(.5 14.847)" style="stroke:#666;stroke-miterlimit:10;fill:none" d="M0 0h42"/>
                <path data-name="선 261" transform="translate(.5 22.007)" style="stroke:#666;stroke-miterlimit:10;fill:none" d="M0 0h42"/>
                <path data-name="선 262" transform="translate(.5 29.168)" style="stroke:#666;stroke-miterlimit:10;fill:none" d="M0 0h42"/>
                <path data-name="선 263" transform="translate(.5 36.328)" style="stroke:#666;stroke-miterlimit:10;fill:none" d="M0 0h42"/>
                <path data-name="사각형 126" transform="translate(.5 .526)" style="stroke:#666;stroke-width:1.011px;stroke-miterlimit:10;fill:none" d="M0 0h42v42.963H0z"/>
                <path data-name="선 264" transform="translate(7.5 .526)" style="stroke:#666;stroke-width:1.023px;stroke-miterlimit:10;fill:none" d="M0 42.963V0"/>
                <path data-name="선 265" transform="translate(14.5 .526)" style="stroke:#666;stroke-width:1.023px;stroke-miterlimit:10;fill:none" d="M0 42.963V0"/>
                <path data-name="선 266" transform="translate(21.5 .526)" style="stroke:#666;stroke-width:1.023px;stroke-miterlimit:10;fill:none" d="M0 42.963V0"/>
                <path data-name="선 267" transform="translate(28.5 .526)" style="stroke:#666;stroke-width:1.023px;stroke-miterlimit:10;fill:none" d="M0 42.963V0"/>
                <path data-name="선 268" transform="translate(35.5 .526)" style="stroke:#666;stroke-width:1.023px;stroke-miterlimit:10;fill:none" d="M0 42.963V0"/>
            </g>
        </g>
    </g>
    <text data-name="6X6" transform="translate(22.164 61.055)" style="font-size:13px;font-family:MontserratRoman-Medium,Montserrat;font-weight:500;letter-spacing:.08em"><tspan x="-13.175" y="0">6X6</tspan></text>
</svg>
