<svg xmlns="http://www.w3.org/2000/svg" width="43" height="64.055" viewBox="0 0 43 64.055">
    <defs>
        <clipPath id="z9hwohelca">
            <path data-name="사각형 76" style="fill:none" d="M0 0h43v43H0z"/>
        </clipPath>
    </defs>
    <g data-name="Vector Smart Object">
        <path data-name="사각형 73" transform="translate(.5 28.501)" style="fill:#ccc" d="M0 0h13.999v13.999H0z"/>
        <g data-name="그룹 42">
            <g data-name="그룹 41" style="clip-path:url(#z9hwohelca)">
                <path data-name="사각형 74" transform="translate(.5 .5)" style="stroke:#ddd;stroke-miterlimit:10;fill:none" d="M0 0h42v42H0z"/>
                <path data-name="선 131" transform="translate(.5 7.5)" style="stroke:#ddd;stroke-miterlimit:10;fill:none" d="M0 0h42"/>
                <path data-name="선 132" transform="translate(.5 14.5)" style="stroke:#ddd;stroke-miterlimit:10;fill:none" d="M0 0h42"/>
                <path data-name="선 133" transform="translate(.5 21.5)" style="stroke:#ddd;stroke-miterlimit:10;fill:none" d="M0 0h42"/>
                <path data-name="선 134" transform="translate(.5 28.5)" style="stroke:#ddd;stroke-miterlimit:10;fill:none" d="M0 0h42"/>
                <path data-name="선 135" transform="translate(.5 35.5)" style="stroke:#ddd;stroke-miterlimit:10;fill:none" d="M0 0h42"/>
                <path data-name="사각형 75" transform="translate(.5 .5)" style="stroke:#ddd;stroke-miterlimit:10;fill:none" d="M0 0h42v42H0z"/>
                <path data-name="선 136" transform="translate(7.5 .5)" style="stroke:#ddd;stroke-miterlimit:10;fill:none" d="M0 42V0"/>
                <path data-name="선 137" transform="translate(14.5 .5)" style="stroke:#ddd;stroke-miterlimit:10;fill:none" d="M0 42V0"/>
                <path data-name="선 138" transform="translate(21.5 .5)" style="stroke:#ddd;stroke-miterlimit:10;fill:none" d="M0 42V0"/>
                <path data-name="선 139" transform="translate(28.5 .5)" style="stroke:#ddd;stroke-miterlimit:10;fill:none" d="M0 42V0"/>
                <path data-name="선 140" transform="translate(35.5 .5)" style="stroke:#ddd;stroke-miterlimit:10;fill:none" d="M0 42V0"/>
            </g>
        </g>
    </g>
    <text data-name="2X2" transform="translate(22.164 61.055)" style="fill:#aaa;font-size:13px;font-family:MontserratRoman-Medium,Montserrat;font-weight:500;letter-spacing:.08em"><tspan x="-12.877" y="0">2X2</tspan></text>
</svg>
