<svg xmlns="http://www.w3.org/2000/svg" width="43" height="64.055" viewBox="0 0 43 64.055">
    <defs>
        <clipPath id="b4s0raebxa">
            <path data-name="사각형 112" style="fill:none" d="M0 0h43v43H0z"/>
        </clipPath>
        <clipPath id="28y3l8mtvb">
            <path data-name="사각형 116" transform="translate(.5 7.501)" style="fill:none" d="M0 0h34.999v34.999H0z"/>
        </clipPath>
    </defs>
    <g data-name="Vector Smart Object">
        <g data-name="그룹 62">
            <g data-name="그룹 61" style="clip-path:url(#b4s0raebxa)">
                <path data-name="사각형 110" transform="translate(.5 .5)" style="stroke-miterlimit:10;stroke:#ddd;fill:none" d="M0 0h42v42H0z"/>
                <path data-name="선 219" transform="translate(.5 7.5)" style="stroke-miterlimit:10;stroke:#ddd;fill:none" d="M0 0h42"/>
                <path data-name="선 220" transform="translate(.5 14.5)" style="stroke-miterlimit:10;stroke:#ddd;fill:none" d="M0 0h42"/>
                <path data-name="선 221" transform="translate(.5 21.5)" style="stroke-miterlimit:10;stroke:#ddd;fill:none" d="M0 0h42"/>
                <path data-name="선 222" transform="translate(.5 28.5)" style="stroke-miterlimit:10;stroke:#ddd;fill:none" d="M0 0h42"/>
                <path data-name="선 223" transform="translate(.5 35.5)" style="stroke-miterlimit:10;stroke:#ddd;fill:none" d="M0 0h42"/>
                <path data-name="사각형 111" transform="translate(.5 .5)" style="stroke-miterlimit:10;stroke:#ddd;fill:none" d="M0 0h42v42H0z"/>
                <path data-name="선 224" transform="translate(7.5 .5)" style="stroke-miterlimit:10;stroke:#ddd;fill:none" d="M0 42V0"/>
                <path data-name="선 225" transform="translate(14.5 .5)" style="stroke-miterlimit:10;stroke:#ddd;fill:none" d="M0 42V0"/>
                <path data-name="선 226" transform="translate(21.5 .5)" style="stroke-miterlimit:10;stroke:#ddd;fill:none" d="M0 42V0"/>
                <path data-name="선 227" transform="translate(28.5 .5)" style="stroke-miterlimit:10;stroke:#ddd;fill:none" d="M0 42V0"/>
                <path data-name="선 228" transform="translate(35.5 .5)" style="stroke-miterlimit:10;stroke:#ddd;fill:none" d="M0 42V0"/>
            </g>
        </g>
        <path data-name="사각형 113" d="M.5 7.501h34.999V42.5H.5z"/>
        <g data-name="그룹 64">
            <g data-name="그룹 63" style="clip-path:url(#28y3l8mtvb)">
                <path data-name="사각형 114" transform="translate(.5 .5)" style="stroke:#666;stroke-miterlimit:10;fill:none" d="M0 0h42v42H0z"/>
                <path data-name="선 229" transform="translate(.5 7.5)" style="stroke:#666;stroke-miterlimit:10;fill:none" d="M0 0h42"/>
                <path data-name="선 230" transform="translate(.5 14.5)" style="stroke:#666;stroke-miterlimit:10;fill:none" d="M0 0h42"/>
                <path data-name="선 231" transform="translate(.5 21.5)" style="stroke:#666;stroke-miterlimit:10;fill:none" d="M0 0h42"/>
                <path data-name="선 232" transform="translate(.5 28.5)" style="stroke:#666;stroke-miterlimit:10;fill:none" d="M0 0h42"/>
                <path data-name="선 233" transform="translate(.5 35.5)" style="stroke:#666;stroke-miterlimit:10;fill:none" d="M0 0h42"/>
                <path data-name="사각형 115" transform="translate(.5 .5)" style="stroke:#666;stroke-miterlimit:10;fill:none" d="M0 0h42v42H0z"/>
                <path data-name="선 234" transform="translate(7.5 .5)" style="stroke:#666;stroke-miterlimit:10;fill:none" d="M0 42V0"/>
                <path data-name="선 235" transform="translate(14.5 .5)" style="stroke:#666;stroke-miterlimit:10;fill:none" d="M0 42V0"/>
                <path data-name="선 236" transform="translate(21.5 .5)" style="stroke:#666;stroke-miterlimit:10;fill:none" d="M0 42V0"/>
                <path data-name="선 237" transform="translate(28.5 .5)" style="stroke:#666;stroke-miterlimit:10;fill:none" d="M0 42V0"/>
                <path data-name="선 238" transform="translate(35.5 .5)" style="stroke:#666;stroke-miterlimit:10;fill:none" d="M0 42V0"/>
            </g>
        </g>
    </g>
    <text data-name="5X5" transform="translate(22.164 61.055)" style="font-size:13px;font-family:MontserratRoman-Medium,Montserrat;font-weight:500;letter-spacing:.08em"><tspan x="-12.799" y="0">5X5</tspan></text>
</svg>
