<svg xmlns="http://www.w3.org/2000/svg" width="120" height="120" viewBox="0 0 120 120">
  <defs>
    <style>
      .cls-1, .cls-2, .cls-3, .cls-4 {
        fill: #fff;
      }

      .cls-1 {
        stroke: #111;
      }

      .cls-1, .cls-2, .cls-3, .cls-4, .cls-5 {
        stroke-linejoin: round;
      }

      .cls-2, .cls-3, .cls-4, .cls-5 {
        stroke: #000;
        stroke-linecap: round;
      }

      .cls-2, .cls-5 {
        stroke-width: 2.038px;
      }

      .cls-3 {
        stroke-width: 2.049px;
      }

      .cls-4 {
        stroke-width: 2.028px;
      }

      .cls-5, .cls-7 {
        fill: none;
      }

      .cls-6 {
        stroke: none;
      }
    </style>
  </defs>
  <g id="icon_interior_circle" transform="translate(-978 -1025)">
    <g id="Ellipse_658" data-name="Ellipse 658" class="cls-1" transform="translate(978 1025)">
      <circle class="cls-6" cx="60" cy="60" r="60"/>
      <circle class="cls-7" cx="60" cy="60" r="59.5"/>
    </g>
    <g id="icon_interior" transform="translate(499.465 859.062)">
      <path id="패스_10" data-name="패스 10" class="cls-2" d="M520.849,241.773v-9.551a8.154,8.154,0,0,1,8.111-8.2h26.432a8.153,8.153,0,0,1,8.111,8.2v9.551"/>
      <path id="패스_11" data-name="패스 11" class="cls-2" d="M555.635,199.962h7.522v17.611H537.974V199.962H545.5"/>
      <path id="패스_12" data-name="패스 12" class="cls-2" d="M522.112,214.346H509.548l2.048-9.76a4.376,4.376,0,0,1,4.234-3.544h0a4.374,4.374,0,0,1,4.234,3.544Z"/>
      <line id="선_12" data-name="선 12" class="cls-3" y2="36.3" transform="translate(515.66 214.346)"/>
      <rect id="사각형_5" data-name="사각형 5" width="5.533" height="2.049" rx="1.019" transform="translate(511.18 250.889)"/>
      <path id="패스_13" data-name="패스 13" class="cls-2" d="M534.149,241.773H563.5v10.141h-7.556"/>
      <line id="선_13" data-name="선 13" class="cls-4" x2="8.232" transform="translate(520.848 241.773)"/>
      <line id="선_14" data-name="선 14" class="cls-4" x1="26.265" transform="translate(524.612 251.914)"/>
      <ellipse id="타원_3" data-name="타원 3" cx="1.014" cy="1.024" rx="1.014" ry="1.024" transform="translate(534.064 231.875)"/>
      <ellipse id="타원_4" data-name="타원 4" cx="1.014" cy="1.024" rx="1.014" ry="1.024" transform="translate(548.259 231.875)"/>
      <ellipse id="타원_5" data-name="타원 5" cx="1.014" cy="1.024" rx="1.014" ry="1.024" transform="translate(549.551 198.938)"/>
      <path id="패스_14" data-name="패스 14" class="cls-2" d="M515.83,251.913V241.139a4.414,4.414,0,0,1,4.391-4.437h0a4.414,4.414,0,0,1,4.391,4.437v10.774"/>
      <path id="사각형_6" data-name="사각형 6" class="cls-2" d="M4.391,0h0A4.391,4.391,0,0,1,8.782,4.391v10.82a0,0,0,0,1,0,0H0a0,0,0,0,1,0,0V4.391A4.391,4.391,0,0,1,4.391,0Z" transform="translate(559.739 236.702)"/>
      <path id="패스_15" data-name="패스 15" class="cls-2" d="M538.16,213.716l6.97-7.042,4.982,5.034"/>
      <path id="패스_16" data-name="패스 16" class="cls-5" d="M544.622,217.254l11.464-11.583,7.07,7.144"/>
    </g>
  </g>
</svg>
