<svg xmlns="http://www.w3.org/2000/svg" width="43" height="64.055" viewBox="0 0 43 64.055">
    <defs>
        <clipPath id="sipzo3ygha">
            <path data-name="사각형 109" style="fill:none" d="M0 0h43v43H0z"/>
        </clipPath>
    </defs>
    <g data-name="Vector Smart Object">
        <path data-name="사각형 106" transform="translate(.5 7.501)" style="fill:#ccc" d="M0 0h34.999v34.999H0z"/>
        <g data-name="그룹 60">
            <g data-name="그룹 59" style="clip-path:url(#sipzo3ygha)">
                <path data-name="사각형 107" transform="translate(.5 .5)" style="stroke:#ddd;stroke-miterlimit:10;fill:none" d="M0 0h42v42H0z"/>
                <path data-name="선 209" transform="translate(.5 7.5)" style="stroke:#ddd;stroke-miterlimit:10;fill:none" d="M0 0h42"/>
                <path data-name="선 210" transform="translate(.5 14.5)" style="stroke:#ddd;stroke-miterlimit:10;fill:none" d="M0 0h42"/>
                <path data-name="선 211" transform="translate(.5 21.5)" style="stroke:#ddd;stroke-miterlimit:10;fill:none" d="M0 0h42"/>
                <path data-name="선 212" transform="translate(.5 28.5)" style="stroke:#ddd;stroke-miterlimit:10;fill:none" d="M0 0h42"/>
                <path data-name="선 213" transform="translate(.5 35.5)" style="stroke:#ddd;stroke-miterlimit:10;fill:none" d="M0 0h42"/>
                <path data-name="사각형 108" transform="translate(.5 .5)" style="stroke:#ddd;stroke-miterlimit:10;fill:none" d="M0 0h42v42H0z"/>
                <path data-name="선 214" transform="translate(7.5 .5)" style="stroke:#ddd;stroke-miterlimit:10;fill:none" d="M0 42V0"/>
                <path data-name="선 215" transform="translate(14.5 .5)" style="stroke:#ddd;stroke-miterlimit:10;fill:none" d="M0 42V0"/>
                <path data-name="선 216" transform="translate(21.5 .5)" style="stroke:#ddd;stroke-miterlimit:10;fill:none" d="M0 42V0"/>
                <path data-name="선 217" transform="translate(28.5 .5)" style="stroke:#ddd;stroke-miterlimit:10;fill:none" d="M0 42V0"/>
                <path data-name="선 218" transform="translate(35.5 .5)" style="stroke:#ddd;stroke-miterlimit:10;fill:none" d="M0 42V0"/>
            </g>
        </g>
    </g>
    <text data-name="5X5" transform="translate(22.164 61.055)" style="fill:#aaa;font-size:13px;font-family:MontserratRoman-Medium,Montserrat;font-weight:500;letter-spacing:.08em"><tspan x="-12.799" y="0">5X5</tspan></text>
</svg>
