<svg xmlns="http://www.w3.org/2000/svg" width="41" height="63.055" viewBox="0 0 41 63.055">
    <defs>
        <clipPath id="5apn8kf1ha">
            <path data-name="사각형 17" style="fill:none" d="M0 0h41v41H0z"/>
        </clipPath>
    </defs>
    <g data-name="Vector Smart Object">
        <path data-name="사각형 14" transform="translate(.5 24.501)" style="fill:#ccc" d="M0 0h15.999v15.999H0z"/>
        <g data-name="그룹 10">
            <g data-name="그룹 9" style="clip-path:url(#5apn8kf1ha)">
                <path data-name="사각형 15" transform="translate(.5 .5)" style="stroke:#ddd;stroke-miterlimit:10;fill:none" d="M0 0h40v40H0z"/>
                <path data-name="선 19" transform="translate(.5 8.5)" style="stroke:#ddd;stroke-miterlimit:10;fill:none" d="M0 0h40"/>
                <path data-name="선 20" transform="translate(.5 16.5)" style="stroke:#ddd;stroke-miterlimit:10;fill:none" d="M0 0h40"/>
                <path data-name="선 21" transform="translate(.5 24.5)" style="stroke:#ddd;stroke-miterlimit:10;fill:none" d="M0 0h40"/>
                <path data-name="선 22" transform="translate(.5 32.5)" style="stroke:#ddd;stroke-miterlimit:10;fill:none" d="M0 0h40"/>
                <path data-name="사각형 16" transform="translate(.5 .5)" style="stroke:#ddd;stroke-miterlimit:10;fill:none" d="M0 0h40v40H0z"/>
                <path data-name="선 23" transform="translate(8.5 .5)" style="stroke:#ddd;stroke-miterlimit:10;fill:none" d="M0 40V0"/>
                <path data-name="선 24" transform="translate(16.5 .5)" style="stroke:#ddd;stroke-miterlimit:10;fill:none" d="M0 40V0"/>
                <path data-name="선 25" transform="translate(24.5 .5)" style="stroke:#ddd;stroke-miterlimit:10;fill:none" d="M0 40V0"/>
                <path data-name="선 26" transform="translate(32.5 .5)" style="stroke:#ddd;stroke-miterlimit:10;fill:none" d="M0 40V0"/>
            </g>
        </g>
    </g>
    <text data-name="2X2" transform="translate(21.164 60.055)" style="fill:#aaa;font-size:13px;font-family:MontserratRoman-Medium,Montserrat;font-weight:500;letter-spacing:.08em"><tspan x="-12.877" y="0">2X2</tspan></text>
</svg>
