<svg xmlns="http://www.w3.org/2000/svg" width="41" height="63.055" viewBox="0 0 41 63.055">
    <defs>
        <clipPath id="wx4gamq5ia">
            <path data-name="사각형 7" style="fill:none" d="M0 0h41v41H0z"/>
        </clipPath>
        <clipPath id="fvv0tavdrb">
            <path data-name="사각형 11" transform="translate(.5 32.501)" style="fill:none" d="M0 0h7.999v7.999H0z"/>
        </clipPath>
    </defs>
    <g data-name="Vector Smart Object">
        <g data-name="그룹 4">
            <g data-name="그룹 3" style="clip-path:url(#wx4gamq5ia)">
                <path data-name="사각형 5" transform="translate(.5 .5)" style="stroke-miterlimit:10;stroke:#ddd;fill:none" d="M0 0h40v40H0z"/>
                <path data-name="선 9" transform="translate(.5 8.5)" style="stroke-miterlimit:10;stroke:#ddd;fill:none" d="M0 0h40"/>
                <path data-name="선 10" transform="translate(.5 16.5)" style="stroke-miterlimit:10;stroke:#ddd;fill:none" d="M0 0h40"/>
                <path data-name="선 11" transform="translate(.5 24.5)" style="stroke-miterlimit:10;stroke:#ddd;fill:none" d="M0 0h40"/>
                <path data-name="선 12" transform="translate(.5 32.5)" style="stroke-miterlimit:10;stroke:#ddd;fill:none" d="M0 0h40"/>
                <path data-name="사각형 6" transform="translate(.5 .5)" style="stroke-miterlimit:10;stroke:#ddd;fill:none" d="M0 0h40v40H0z"/>
                <path data-name="선 13" transform="translate(8.5 .5)" style="stroke-miterlimit:10;stroke:#ddd;fill:none" d="M0 40V0"/>
                <path data-name="선 14" transform="translate(16.5 .5)" style="stroke-miterlimit:10;stroke:#ddd;fill:none" d="M0 40V0"/>
                <path data-name="선 15" transform="translate(24.5 .5)" style="stroke-miterlimit:10;stroke:#ddd;fill:none" d="M0 40V0"/>
                <path data-name="선 16" transform="translate(32.5 .5)" style="stroke-miterlimit:10;stroke:#ddd;fill:none" d="M0 40V0"/>
            </g>
        </g>
        <path data-name="사각형 8" d="M.5 32.501h7.999V40.5H.5z"/>
        <g data-name="그룹 6">
            <g data-name="그룹 5" style="clip-path:url(#fvv0tavdrb)">
                <path data-name="사각형 9" transform="translate(.5 .5)" style="stroke-miterlimit:10;stroke:#ddd;fill:none" d="M0 0h40v40H0z"/>
                <path data-name="선 17" transform="translate(.5 32.5)" style="stroke-miterlimit:10;stroke:#ddd;fill:none" d="M0 0h40"/>
                <path data-name="사각형 10" transform="translate(.5 .5)" style="stroke-miterlimit:10;stroke:#ddd;fill:none" d="M0 0h40v40H0z"/>
                <path data-name="선 18" transform="translate(8.5 .5)" style="stroke-miterlimit:10;stroke:#ddd;fill:none" d="M0 40V0"/>
            </g>
        </g>
        <g data-name="그룹 8">
            <g data-name="그룹 7" style="clip-path:url(#wx4gamq5ia)">
                <path data-name="사각형 12" transform="translate(.5 32.5)" style="stroke:#666;stroke-miterlimit:10;fill:none" d="M0 0h8v8H0z"/>
            </g>
        </g>
    </g>
    <text data-name="1X1" transform="translate(21.164 60.055)" style="fill:#111;font-size:13px;font-family:MontserratRoman-Medium,Montserrat;font-weight:500;letter-spacing:.08em"><tspan x="-10.289" y="0">1X1</tspan></text>
</svg>
