<svg xmlns="http://www.w3.org/2000/svg" width="582.555" height="104.294" viewBox="0 0 582.555 104.294">
  <g id="logo_printbakery_bk" transform="translate(-65.59 -51.424)">
    <g id="그룹_49" data-name="그룹 49">
      <path id="패스_107" data-name="패스 107" d="M514.06,120.171q3.726,3.606,10.722,3.607a14.755,14.755,0,0,0,8.617-2.5q3.611-2.511,4.43-5.3h14.563q-3.492,10.837-10.719,15.5T524.2,136.132a34.37,34.37,0,0,1-12.817-2.274,26.557,26.557,0,0,1-9.673-6.468,28.89,28.89,0,0,1-6.115-10.021,36.544,36.544,0,0,1-2.159-12.813,35.061,35.061,0,0,1,2.22-12.587,29.065,29.065,0,0,1,16.015-16.776A31.28,31.28,0,0,1,524.2,72.746a28.675,28.675,0,0,1,13.4,2.971,26.8,26.8,0,0,1,9.382,7.977,33.117,33.117,0,0,1,5.3,11.423,42.654,42.654,0,0,1,1.158,13.4H509.979q.355,8.047,4.081,11.656m18.7-31.695q-2.976-3.259-9.022-3.266a14.436,14.436,0,0,0-6.59,1.344,12.6,12.6,0,0,0-4.2,3.32,12.182,12.182,0,0,0-2.213,4.2,18.952,18.952,0,0,0-.758,3.959H536.9q-1.168-6.29-4.136-9.554M456.851,51.424V96.051L477.709,74.38h19.572L474.558,96.514l25.284,38.1H479.8L463.261,107.7l-6.41,6.181v20.736H440.308V51.424Zm-40.43,59.89a32.341,32.341,0,0,1-.291,3.73,12.481,12.481,0,0,1-1.577,4.6,10.909,10.909,0,0,1-3.956,3.906,14.671,14.671,0,0,1-7.575,1.628,20.515,20.515,0,0,1-3.848-.349,9.26,9.26,0,0,1-3.262-1.226,6.225,6.225,0,0,1-2.213-2.385,7.779,7.779,0,0,1-.816-3.726,8.078,8.078,0,0,1,.816-3.849,7.569,7.569,0,0,1,2.152-2.5A10.965,10.965,0,0,1,399,109.564a29.888,29.888,0,0,1,3.668-.93c1.323-.23,2.638-.428,3.964-.579s2.58-.356,3.787-.585a27.919,27.919,0,0,0,3.377-.877,7.429,7.429,0,0,0,2.623-1.455ZM394.748,92.9q.464-4.889,3.262-7a12.59,12.59,0,0,1,7.693-2.094,27.586,27.586,0,0,1,4.132.3,9.137,9.137,0,0,1,3.381,1.16,6.482,6.482,0,0,1,2.332,2.451,8.764,8.764,0,0,1,.873,4.247,4.478,4.478,0,0,1-1.516,3.906,11.149,11.149,0,0,1-4.427,2.037,44.74,44.74,0,0,1-6.406,1.053q-3.616.345-7.344.927a71.252,71.252,0,0,0-7.4,1.577,20.969,20.969,0,0,0-6.526,2.971,15.053,15.053,0,0,0-4.656,5.3,17.478,17.478,0,0,0-1.808,8.447,18.894,18.894,0,0,0,1.571,8.041,15.217,15.217,0,0,0,4.365,5.6,18.386,18.386,0,0,0,6.528,3.258,29.481,29.481,0,0,0,8.042,1.05A37.251,37.251,0,0,0,407.8,134.5a21.514,21.514,0,0,0,9.32-5.71,25.055,25.055,0,0,0,.41,2.975,21.736,21.736,0,0,0,.758,2.854h16.777a14.052,14.052,0,0,1-1.632-5.591,63.271,63.271,0,0,1-.463-7.808V89.874a14.5,14.5,0,0,0-2.451-8.8,16.789,16.789,0,0,0-6.292-5.185,28.351,28.351,0,0,0-8.5-2.5,67.869,67.869,0,0,0-9.206-.64,50.586,50.586,0,0,0-9.964.992,28.456,28.456,0,0,0-8.914,3.316,19.909,19.909,0,0,0-6.518,6.18A19.208,19.208,0,0,0,378.2,92.9ZM330.086,51.424V81.717h.23A17.7,17.7,0,0,1,338.53,74.9a27.885,27.885,0,0,1,10.779-2.155,22.988,22.988,0,0,1,16.953,7.574,29.323,29.323,0,0,1,5.767,9.845,41.391,41.391,0,0,1,2.212,14.275,41.375,41.375,0,0,1-2.212,14.273,29.318,29.318,0,0,1-5.767,9.844,22.984,22.984,0,0,1-16.953,7.575,31.786,31.786,0,0,1-11.886-2.1,15.123,15.123,0,0,1-7.923-7.111h-.233v7.69H313.536V51.424Zm26.793,45.787a19.165,19.165,0,0,0-2.565-6.169,13.405,13.405,0,0,0-4.365-4.258,13.483,13.483,0,0,0-12.644,0,13.239,13.239,0,0,0-4.427,4.258,19.184,19.184,0,0,0-2.562,6.169,32.369,32.369,0,0,0-.816,7.345,31.7,31.7,0,0,0,.816,7.221,19.214,19.214,0,0,0,2.562,6.181,13.177,13.177,0,0,0,4.427,4.247,13.491,13.491,0,0,0,12.644,0,13.34,13.34,0,0,0,4.365-4.247,19.2,19.2,0,0,0,2.565-6.181,31.42,31.42,0,0,0,.816-7.221,32.089,32.089,0,0,0-.816-7.345M284.874,74.38V85.447H272.758v29.827q0,4.192,1.4,5.594t5.592,1.4c.934,0,1.825-.039,2.68-.115a23.58,23.58,0,0,0,2.447-.349v12.814a40.576,40.576,0,0,1-4.661.466q-2.565.114-5.009.115a48.331,48.331,0,0,1-7.282-.521,16.958,16.958,0,0,1-6.058-2.044,10.753,10.753,0,0,1-4.14-4.308,15.4,15.4,0,0,1-1.513-7.344V85.447h-10.02V74.38h10.02V56.318h16.547V74.38Zm-79.465,0v8.387h.352a18.985,18.985,0,0,1,8.156-7.635,23.637,23.637,0,0,1,10.251-2.386,28.088,28.088,0,0,1,10.894,1.807,16.13,16.13,0,0,1,6.7,5.012A19.369,19.369,0,0,1,245.2,87.37a48.437,48.437,0,0,1,.989,10.194v37.052H229.648V100.592q0-7.454-2.332-11.128T219.044,85.8q-6.764,0-9.787,4.021t-3.029,13.226v31.573H189.681V74.38Zm-124.085,0v7.686h.23a18.2,18.2,0,0,1,7.689-7.107A23.579,23.579,0,0,1,99.5,72.746a26.075,26.075,0,0,1,12.235,2.68,25.22,25.22,0,0,1,8.5,7.111,29.981,29.981,0,0,1,5.009,10.308,45.78,45.78,0,0,1,1.634,12.293,41.39,41.39,0,0,1-1.634,11.652,29.69,29.69,0,0,1-4.948,9.9,24.63,24.63,0,0,1-8.276,6.877,24.917,24.917,0,0,1-11.591,2.562,23.43,23.43,0,0,1-10.312-2.274,19.478,19.478,0,0,1-7.75-6.7h-.234V155.7H65.59V74.38Zm21.494,47.771a13.323,13.323,0,0,0,4.43-4.254,17.463,17.463,0,0,0,2.386-6.12,36.006,36.006,0,0,0,.7-7.106,33.572,33.572,0,0,0-.758-7.107,19.023,19.023,0,0,0-2.505-6.235,14,14,0,0,0-4.488-4.427,12.511,12.511,0,0,0-6.7-1.692A12.743,12.743,0,0,0,89.071,86.9a13.586,13.586,0,0,0-4.427,4.37,18.055,18.055,0,0,0-2.389,6.176,36.6,36.6,0,0,0-.7,7.223,33.2,33.2,0,0,0,.759,7.106,18.245,18.245,0,0,0,2.446,6.12,14.129,14.129,0,0,0,18.059,4.254"/>
      <path id="패스_108" data-name="패스 108" d="M166.844,65.06H183.39V51.424H166.844Zm16.546,69.556V74.385H166.844a19.845,19.845,0,0,0-6.055.962,22.277,22.277,0,0,0-5.479,2.623,20.7,20.7,0,0,0-4.542,4.074,20.263,20.263,0,0,0-3.148,5.185h-.233V74.373H131.656v60.243H148.2V109.133a33.362,33.362,0,0,1,.816-7.567,16.666,16.666,0,0,1,2.738-6.122,13.348,13.348,0,0,1,5.07-4.129,17.615,17.615,0,0,1,7.69-1.516c.754,0,1.53,0,2.328.039v44.778Z"/>
      <path id="패스_109" data-name="패스 109" d="M648.145,74.391H631.017L617.851,115.64h-.234L603.982,74.391H590.95l.01.037a20.325,20.325,0,0,0-4.893.934,22.28,22.28,0,0,0-5.48,2.622,20.623,20.623,0,0,0-4.542,4.079,20.231,20.231,0,0,0-3.147,5.184h-.23V74.391H556.937v60.243H573.48V109.151a33.516,33.516,0,0,1,.812-7.57,16.531,16.531,0,0,1,2.745-6.119,13.27,13.27,0,0,1,5.066-4.136,17.7,17.7,0,0,1,7.689-1.517c.7,0-.2,0,2.361.022L607.481,130.9a9.979,9.979,0,0,1,.7,3.73,8.293,8.293,0,0,1-1.573,4.893,6.439,6.439,0,0,1-4.837,2.562,34.215,34.215,0,0,1-4.893-.119c-1.628-.154-3.224-.312-4.775-.466v13.635c1.706.155,3.391.292,5.069.406s3.36.173,5.067.173q8.509,0,13.283-3.141t7.456-10.488Z"/>
    </g>
  </g>
</svg>
